<svg xmlns="http://www.w3.org/2000/svg" width="17.667" height="17.667" viewBox="0 0 17.667 17.667">
  <g id="Group_6416" data-name="Group 6416" transform="translate(-85.333 -85.333)">
    <path id="Path_360" data-name="Path 360" d="M100.35,128a2.65,2.65,0,0,1,2.65,2.65v11.483a2.65,2.65,0,0,1-2.65,2.65H87.983a2.65,2.65,0,0,1-2.65-2.65V130.65a2.65,2.65,0,0,1,2.65-2.65h.442a.883.883,0,1,1,0,1.767h-.442a.883.883,0,0,0-.883.883v11.483a.883.883,0,0,0,.883.883H100.35a.883.883,0,0,0,.883-.883V130.65a.883.883,0,0,0-.883-.883h-.442a.883.883,0,0,1,0-1.767Z" transform="translate(0 -41.783)" fill="#0f171a"/>
    <path id="Path_361" data-name="Path 361" d="M85.333,91.517a.883.883,0,0,1,.883-.883H98.583a.883.883,0,1,1,0,1.767H86.217A.883.883,0,0,1,85.333,91.517ZM89.75,95.05a.883.883,0,0,1,.883-.883h.883a.883.883,0,0,1,0,1.767h-.883A.883.883,0,0,1,89.75,95.05Zm6.183,0a.883.883,0,0,1,.883-.883H97.7a.883.883,0,1,1,0,1.767h-.883A.883.883,0,0,1,95.933,95.05ZM89.75,98.583a.883.883,0,0,1,.883-.883h.883a.883.883,0,0,1,0,1.767h-.883A.883.883,0,0,1,89.75,98.583Zm6.183,0a.883.883,0,0,1,.883-.883H97.7a.883.883,0,1,1,0,1.767h-.883A.883.883,0,0,1,95.933,98.583Zm.883-13.25a.883.883,0,0,1,.883.883v1.767a.883.883,0,0,1-1.767,0V86.217A.883.883,0,0,1,96.817,85.333Zm-5.3,0a.883.883,0,0,1,.883.883v1.767a.883.883,0,1,1-1.767,0V86.217A.883.883,0,0,1,91.517,85.333Z" fill="#0f171a"/>
    <path id="Path_362" data-name="Path 362" d="M362.667,128.883a.883.883,0,0,1,.883-.883h4.417a.883.883,0,1,1,0,1.767H363.55A.883.883,0,0,1,362.667,128.883Z" transform="translate(-271.592 -41.783)" fill="#0f171a"/>
  </g>
</svg>
