<svg xmlns="http://www.w3.org/2000/svg" xmlns:xlink="http://www.w3.org/1999/xlink" width="50.043" height="35" viewBox="0 0 50.043 35">
  <defs>
    <clipPath id="clip-path">
      <rect id="Rectangle_4119" data-name="Rectangle 4119" width="50.043" height="35" fill="none"/>
    </clipPath>
  </defs>
  <g id="BE_GAMBLE_AWARE" data-name="BE GAMBLE AWARE" clip-path="url(#clip-path)">
    <path id="Path_21607" data-name="Path 21607" d="M7.071,4.763a2.521,2.521,0,0,1,1.4,1.432A2.747,2.747,0,0,1,6.621,9.875a5.014,5.014,0,0,1-1.314.176c-1.618.02-3.238,0-4.856.019-.364,0-.482-.109-.447-.462A4.851,4.851,0,0,0,0,8.8c-.019-.275.07-.413.362-.372.314.043.423-.088.422-.41q-.018-2.974,0-5.949c0-.31-.093-.465-.416-.424-.287.036-.384-.088-.367-.37A9.1,9.1,0,0,0,.008.336C0,.1.073,0,.328,0c1.78.017,3.562-.012,5.341.04A2.625,2.625,0,0,1,8.109,3.65a2.936,2.936,0,0,1-.617.773,3.422,3.422,0,0,1-.422.336M2.893,7.019c0,.353.011.7,0,1.05-.011.258.079.363.348.353.632-.015,1.267.02,1.9-.019a1.91,1.91,0,0,0,.829-.265A1.272,1.272,0,0,0,6.527,6.71,1.355,1.355,0,0,0,5.274,5.682c-.7-.04-1.4-.02-2.1,0a.4.4,0,0,0-.265.283c-.034.347-.013.7-.014,1.05M4.131,4.067v-.01c.324,0,.647.015.97,0A1.273,1.273,0,0,0,6.276,2.919a1.058,1.058,0,0,0-.9-1.13A17.579,17.579,0,0,0,3.1,1.657c-.066,0-.192.2-.2.318-.02.579,0,1.159-.014,1.738-.005.257.088.371.353.358.3-.014.593,0,.889,0" transform="translate(0)" fill="#fff"/>
    <path id="Path_21608" data-name="Path 21608" d="M61.661,172.976c.074-.306.157-.61.221-.918q.441-2.093.863-4.19c.07-.348.206-.553.617-.514.388.037.785-.023,1.17.025a.577.577,0,0,1,.41.33c.306,1.323.576,2.655.86,3.984.088.4.183.794.274,1.2H66.2c.068-.245.145-.488.2-.735.224-.956.441-1.915.666-2.87.069-.29,0-.446-.326-.417-.247.022-.335-.114-.333-.344.019-1.388-.176-1.136,1.058-1.158.539-.01,1.079,0,1.618,0,.273,0,.4.111.388.386a5.115,5.115,0,0,0,0,.566c.024.34-.032.584-.463.575-.1,0-.254.155-.284.265q-.748,2.764-1.461,5.538a.4.4,0,0,1-.452.353c-.441-.007-.891-.014-1.334,0a.4.4,0,0,1-.455-.353l-1.005-4.2c-.032-.132-.088-.26-.129-.39H63.78c-.078.288-.164.573-.23.863q-.426,1.869-.841,3.741a.373.373,0,0,1-.422.337c-.459-.009-.92.025-1.374-.018a.581.581,0,0,1-.422-.317c-.514-1.811-1.006-3.629-1.489-5.448-.07-.265-.176-.412-.457-.4-.237.01-.34-.115-.337-.353.017-1.367-.176-1.131,1.07-1.152.539-.009,1.079.007,1.618-.005.273-.006.4.088.387.374a5.014,5.014,0,0,0,0,.647c.023.318-.041.52-.43.5-.342-.019-.258.247-.216.431.176.774.369,1.544.553,2.316.081.34.154.682.24,1.021a3.1,3.1,0,0,0,.127.34l.1-.01" transform="translate(-48.784 -140.257)" fill="#fff"/>
    <path id="Path_21609" data-name="Path 21609" d="M4.8,152.641a7.123,7.123,0,0,0,.809-.006c.346-.04.481.148.572.43l2.486,7.585c.1.318.243.523.617.458.257-.044.323.106.314.337-.011.31-.013.617,0,.931.012.252-.064.371-.338.364-.553-.014-1.106-.011-1.659,0a.383.383,0,0,1-.428-.33c-.145-.518-.295-1.035-.482-1.538a.54.54,0,0,0-.377-.305q-1.476-.041-2.952,0a.546.546,0,0,0-.385.308c-.191.516-.318,1.058-.5,1.573a.5.5,0,0,1-.347.279c-.592.029-1.186.007-1.78.017-.228,0-.313-.088-.306-.31q.016-.505,0-1.012c-.007-.218.066-.353.3-.31.378.071.519-.138.617-.453.5-1.563,1.008-3.121,1.513-4.682.332-1.023.653-2.051,1.006-3.066a.54.54,0,0,1,.389-.254,7.456,7.456,0,0,1,.929-.011ZM3.49,158.969h2.6L4.855,154.78H4.729L3.49,158.973" transform="translate(-0.035 -127.921)" fill="#fff"/>
    <path id="Path_21610" data-name="Path 21610" d="M225.993,171.5a2.931,2.931,0,0,1-1.5,2.157,3.755,3.755,0,0,1-5.715-2.962,4.164,4.164,0,0,1,1.162-3.6,3.574,3.574,0,0,1,5.8,1.218,8.4,8.4,0,0,1,.435,1.671c.088.486-.01.572-.5.572h-4.492c-.452,0-.5.066-.419.489a1.746,1.746,0,0,0,2.25,1.486,2.2,2.2,0,0,0,.918-.724.673.673,0,0,1,.554-.316h1.511m-5.224-2.358c.176.009.324.019.468.021.754.012,1.508.02,2.261.035.529.011.623-.133.385-.617a1.57,1.57,0,0,0-1.588-.875,1.79,1.79,0,0,0-1.524,1.435" transform="translate(-183.334 -139.203)" fill="#fff"/>
    <path id="Path_21611" data-name="Path 21611" d="M65.223,18.02c-.782,0-1.565.013-2.346-.006-.323-.008-.384.1-.34.4a1.756,1.756,0,0,0,2.427,1.529,4,4,0,0,0,.8-.706.958.958,0,0,1,.433-.259c.373-.044.753-.028,1.131-.036.453-.01.513.088.341.525a3.175,3.175,0,0,1-2.381,2.044A3.64,3.64,0,0,1,61.02,19.7a4.549,4.549,0,0,1,.6-5.05A3.6,3.6,0,0,1,67.55,15.84a11.739,11.739,0,0,1,.418,1.756c.064.3-.07.436-.4.428-.781-.019-1.565-.006-2.346-.006M62.644,16.58c.171.021.312.051.455.056.74.02,1.481.034,2.221.049.543.01.641-.147.406-.646a1.576,1.576,0,0,0-1.6-.866,1.691,1.691,0,0,0-1.485,1.411" transform="translate(-50.721 -11.376)" fill="#fff"/>
    <path id="Path_21612" data-name="Path 21612" d="M135.374,173.9a14.37,14.37,0,0,1-1.581.706,2.817,2.817,0,0,1-3.131-1.2,2.172,2.172,0,0,1,1.33-3.233c.841-.258,1.735-.345,2.6-.521a1.435,1.435,0,0,0,.714-.236c.183-.189-.054-.831-.309-1.058a1.736,1.736,0,0,0-2.029.043,1.5,1.5,0,0,0-.285.564.378.378,0,0,1-.436.318c-.363-.026-.727-.049-1.09-.044s-.4-.171-.325-.462a2.487,2.487,0,0,1,1.644-1.8,4.515,4.515,0,0,1,3.166.034,2.4,2.4,0,0,1,1.588,2.553q-.025,1.5-.067,2.991c-.009.3.008.542.415.521.076,0,.162.156.24.245.014.016,0,.052,0,.079.068,1.134.068,1.134-1.065,1.137h-.529c-.727,0-.727,0-.862-.631m-.02-2.373c-.088-.167.189-.594-.247-.557a11.921,11.921,0,0,0-2.09.376.9.9,0,0,0-.617,1.022.954.954,0,0,0,.7.845,1.713,1.713,0,0,0,2.252-1.686" transform="translate(-109.254 -139.717)" fill="#fff"/>
    <path id="Path_21613" data-name="Path 21613" d="M112.389,92.532a2.872,2.872,0,0,1,2.142-1.348,1.712,1.712,0,0,1,1.954,1.461c.172-.21.288-.347.4-.488a2.349,2.349,0,0,1,2.636-.917,1.5,1.5,0,0,1,1.082,1.331c.078.748.065,1.506.075,2.261.011.917.024,1.835,0,2.751-.012.4.135.541.512.487a.558.558,0,0,1,.081,0,.512.512,0,0,1,.449.805.411.411,0,0,1-.3.127c-.431.014-.864-.015-1.294.013-.385.026-.517-.1-.512-.5.019-1.578.012-3.156,0-4.734a5.54,5.54,0,0,0-.093-.84,1.046,1.046,0,0,0-1.544-.783,2.336,2.336,0,0,0-1.517,2.2c-.06,1.116-.01,2.238-.018,3.357,0,.265.094.378.353.353.08-.007.162,0,.243,0,.5,0,.7.3.5.767a.364.364,0,0,1-.276.163c-.539.015-1.079,0-1.618.006-.342,0-.336-.236-.336-.475V93.794c0-.161-.015-.324-.01-.485.034-1.117-.915-1.5-1.786-1.009a2.381,2.381,0,0,0-1.323,2.084c-.026,1.105,0,2.212-.013,3.317,0,.288.078.441.388.4a.829.829,0,0,1,.282,0c.146.035.385.069.41.153a1.72,1.72,0,0,1,.008.673c-.006.047-.176.1-.274.1-.9.008-1.807,0-2.71.009-.322,0-.34-.183-.328-.42s-.051-.494.326-.529c.8-.068.8-.078.8-.871,0-1.524-.008-3.048.007-4.571,0-.333-.1-.479-.435-.431a1.38,1.38,0,0,1-.2,0,.529.529,0,0,1-.463-.819.407.407,0,0,1,.3-.128c.539-.012,1.079,0,1.618-.009.228,0,.312.088.316.309.005.3.033.6.05.9l.123.056" transform="translate(-92.103 -76.374)" fill="#fff"/>
    <path id="Path_21614" data-name="Path 21614" d="M7.083,84.847a1.341,1.341,0,0,1-.131.3,3.567,3.567,0,0,1-5.761-.235A6.141,6.141,0,0,1,.132,80.078a5.66,5.66,0,0,1,1.21-2.734,3.546,3.546,0,0,1,4.675-.9,10.606,10.606,0,0,1,1.147,1.006c0-.353.013-.669,0-.981-.015-.272.068-.416.361-.378h.041c.706-.014.706-.014.706.682,0,.715-.009,1.43,0,2.145.005.294-.1.407-.4.409-.669.006-.669.019-.944-.582a2.734,2.734,0,0,0-3.182-1.665,2.9,2.9,0,0,0-1.981,1.913,5.565,5.565,0,0,0,.406,5.047,2.592,2.592,0,0,0,2.877,1.235,2.957,2.957,0,0,0,2.159-2.758c0-.271-.121-.353-.37-.348-.529.009-1.052,0-1.578.005-.242,0-.449-.027-.4-.346.038-.249-.1-.594.385-.581.931.023,1.862.016,2.792,0,.309,0,.392.124.39.412q-.014,2.084,0,4.168c0,.305-.1.436-.42.441-.722.009-.722.021-.72-.69v-.6l-.2-.136" transform="translate(-0.024 -63.628)" fill="#fff"/>
    <path id="Path_21615" data-name="Path 21615" d="M192.358,78.894l.368-.41a2.542,2.542,0,0,1,3.985-.01,4.718,4.718,0,0,1,.041,5.922,2.6,2.6,0,0,1-4.137.031c-.088-.1-.176-.188-.265-.281l-.128.025c0,.258-.01.515,0,.772s-.07.4-.363.392c-.512-.015-1.025-.019-1.536,0-.345.012-.324-.206-.308-.425s-.1-.5.307-.522c.761-.039.76-.054.76-.8V76.261c0-.568,0-.584-.555-.574-.358.007-.5-.1-.5-.486s.176-.452.495-.441c.417.016.836.018,1.253,0,.329-.015.455.1.451.441-.015,1.078-.006,2.157,0,3.235,0,.143.018.285.027.427l.106.027m4.226,2.533a14.25,14.25,0,0,0-.265-1.463,1.927,1.927,0,0,0-2.577-1.426,2.19,2.19,0,0,0-1.257,1.142,4.083,4.083,0,0,0,.188,3.754,1.964,1.964,0,0,0,1.949.99,1.852,1.852,0,0,0,1.646-1.406,11.941,11.941,0,0,0,.316-1.588" transform="translate(-159.249 -62.658)" fill="#fff"/>
    <path id="Path_21616" data-name="Path 21616" d="M64.66,98.425a3.193,3.193,0,0,1-1.88,1.242,2.406,2.406,0,0,1-3.036-2.8A2.029,2.029,0,0,1,61.4,95.378a24.6,24.6,0,0,1,2.813-.507c.36-.05.51-.135.529-.529.06-1.439-1.093-1.825-2.18-1.687a1.439,1.439,0,0,0-1.337,1.108c-.079.3-.3.265-.507.265-.776.011-.832-.088-.492-.794a2.457,2.457,0,0,1,1.87-1.394,3.716,3.716,0,0,1,2.447.265,2.029,2.029,0,0,1,1.2,1.75c.059,1.4.045,2.8.059,4.205.005.565,0,.565.557.569a.568.568,0,0,1,.581.778.31.31,0,0,1-.238.152c-.566.014-1.133.019-1.7,0-.081,0-.208-.176-.221-.282a6.527,6.527,0,0,1-.011-.794l-.107-.052m.049-2.785a4.076,4.076,0,0,0-.617.052,25.465,25.465,0,0,0-2.486.642A1,1,0,0,0,61,97.563a1.608,1.608,0,0,0,2.33,1.1,2.463,2.463,0,0,0,1.38-3.026" transform="translate(-50.025 -76.897)" fill="#fff"/>
    <path id="Path_21617" data-name="Path 21617" d="M273.781,97.494a3.03,3.03,0,0,1-2.029,2.1,3.453,3.453,0,0,1-4.5-2.734,4.542,4.542,0,0,1,.65-3.627,3.038,3.038,0,0,1,3.182-1.378,3.087,3.087,0,0,1,2.5,2.159,10.089,10.089,0,0,1,.333,1.573c.06.318-.093.422-.408.42-1.537-.011-3.075-.005-4.612,0-.5,0-.549.036-.459.529a2.522,2.522,0,0,0,1.514,2.172,1.773,1.773,0,0,0,2.234-.691.923.923,0,0,1,1-.526c.169.016.341,0,.59,0m-5.336-2.484c.049.034.07.063.088.063,1.29.01,2.58.022,3.87.011.073,0,.218-.2.206-.288a2.356,2.356,0,0,0-1.045-1.819,1.837,1.837,0,0,0-1.987.078,2.4,2.4,0,0,0-1.136,1.955" transform="translate(-223.89 -76.942)" fill="#fff"/>
    <path id="Path_21618" data-name="Path 21618" d="M185.438,167.563a2.45,2.45,0,0,1,1.588-1.035c.08-.007.161-.019.242-.023.872-.039.933.016.925.882,0,.306.071.691-.088.891-.108.139-.545.026-.834.02a1.714,1.714,0,0,0-1.83,1.772c0,.768.011,1.537-.007,2.306-.008.327.088.491.433.447.422-.055.529.149.516.542-.031,1.1.108.953-.941.961-.742.006-1.484-.011-2.224.008-.322.008-.441-.114-.421-.424a3.11,3.11,0,0,0,0-.529c-.035-.362.028-.609.482-.58.077.005.238-.185.239-.287.017-1.362.011-2.723.012-4.085,0-.243-.152-.3-.348-.28-.312.025-.393-.138-.387-.417.026-1.3-.156-1.067,1.05-1.089.337-.006.674,0,1.011,0,.542,0,.546.006.556.529,0,.128.017.257.026.385" transform="translate(-153.199 -139.543)" fill="#fff"/>
    <path id="Path_21619" data-name="Path 21619" d="M243.9,79.576c0,1.429.01,2.858-.007,4.287,0,.372.088.542.495.52a.506.506,0,0,1,.514.781.377.377,0,0,1-.291.142c-.889.011-1.779,0-2.669.01-.272,0-.318-.156-.3-.366s-.108-.519.271-.571h.041c.805-.088.806-.088.806-.889V76.17c0-.551,0-.551-.563-.557-.513,0-.507-.012-.5-.52,0-.275.12-.348.369-.341.441.011.891.023,1.334,0,.385-.023.519.11.513.5-.019,1.442-.007,2.885-.007,4.327Z" transform="translate(-202.518 -62.643)" fill="#fff"/>
  </g>
</svg>
