<svg xmlns="http://www.w3.org/2000/svg" width="20.177" height="20.177" viewBox="0 0 20.177 20.177">
  <path id="Path_353" data-name="Path 353" d="M110.384,97.162a10.119,10.119,0,1,0,.793,3.927A10.054,10.054,0,0,0,110.384,97.162ZM102.9,98.652a1.126,1.126,0,0,1,2.253,0v.53a1.126,1.126,0,0,1-2.253,0Zm-5.872,0a1.126,1.126,0,0,1,2.253,0v.53a1.126,1.126,0,0,1-2.253,0Zm7.955,6.234a.887.887,0,0,1-1.241.178,4.491,4.491,0,0,0-2.571-.666,4.224,4.224,0,0,0-2.673.749.887.887,0,1,1-1.182-1.322,5.94,5.94,0,0,1,3.855-1.2,6.2,6.2,0,0,1,3.634,1.02A.887.887,0,0,1,104.981,104.886Z" transform="translate(-91 -91.001)" fill="#fff"/>
</svg>
