<svg xmlns="http://www.w3.org/2000/svg" width="29.498" height="26.82" viewBox="0 0 29.498 26.82">
  <path id="Union_58" data-name="Union 58" d="M23143.8-19778.182h-23.465a1.339,1.339,0,0,1-1.34-1.342,1.337,1.337,0,0,1,1.34-1.34h2.01v-13.41h-2.01a1.34,1.34,0,0,1-1.291-.982,1.339,1.339,0,0,1,.6-1.508l13.408-8.045a1.333,1.333,0,0,1,1.383,0l13.406,8.045a1.345,1.345,0,0,1,.6,1.508,1.345,1.345,0,0,1-1.295.982h-2.012v13.41h2.012a1.34,1.34,0,0,1,1.342,1.34,1.342,1.342,0,0,1-1.342,1.342Zm-1.34-2.682v-13.41h-4.023v13.41Zm-6.7,0v-13.41h-4.023v13.41Zm-6.707,0v-13.41h-4.023v13.41Z" transform="translate(-23119 19805.002)" fill="#fff"/>
</svg>
