<svg xmlns="http://www.w3.org/2000/svg" viewBox="0 0 72 72"><defs><style>.cls-1{fill:#00b241;}.cls-2{fill:#fff;}</style></defs><g id="Layer_2" data-name="Layer 2"><g id="Layer_1-2" data-name="Layer 1"><g id="Group_23362" data-name="Group 23362"><path id="Path_23882" data-name="Path 23882" class="cls-1" d="M72,36A36,36,0,1,1,36,0h0A36,36,0,0,1,72,36"/><path class="cls-2" d="M36,13.71c-13.95,0-25.26,9.06-25.26,20.23,0,10,9,18.23,20.82,19.92l.84.1c4,.84.53,5.88,1.85,6.91,1.52,1.19,13-6.5,20-12.95A21.57,21.57,0,0,0,57,45.18v0a4.51,4.51,0,0,0,.47-.59,17.25,17.25,0,0,0,3.77-10.63C61.26,22.77,50,13.71,36,13.71ZM27.76,39.07a1.32,1.32,0,0,1-1.32,1.32h-5.1A1.32,1.32,0,0,1,20,39.07V29.3A1.32,1.32,0,0,1,21.34,28h.11a1.33,1.33,0,0,1,1.32,1.32v8.34h3.67A1.33,1.33,0,0,1,27.76,39Zm3.8,0a1.31,1.31,0,0,1-1.31,1.31h-.11a1.32,1.32,0,0,1-1.32-1.31V29.3A1.32,1.32,0,0,1,30.14,28h.11a1.31,1.31,0,0,1,1.31,1.31Zm11.94,0a1.34,1.34,0,0,1-.38.92h0a.87.87,0,0,1-.32.24,1.31,1.31,0,0,1-.61.15h-.11a1.24,1.24,0,0,1-.5-.1,1.06,1.06,0,0,1-.51-.37l-.1-.14-4.8-6.55v5.85a1.31,1.31,0,0,1-1.31,1.31h-.11a1.32,1.32,0,0,1-1.32-1.31V29.3A1.32,1.32,0,0,1,34.74,28h.11a1.31,1.31,0,0,1,1.14.66L40.75,35V29.3A1.32,1.32,0,0,1,42.07,28h.11A1.32,1.32,0,0,1,43.5,29.3Zm9.41-9.64a1.31,1.31,0,0,1-1.31,1.31H47.93v2.09h3.66a1.32,1.32,0,0,1,1.32,1.32v.1h0a1.31,1.31,0,0,1-1.31,1.31H47.93v2.09H51.6A1.32,1.32,0,0,1,52.91,39v.11a1.32,1.32,0,0,1-1.31,1.32H46.5a1.33,1.33,0,0,1-1.32-1.32V29.33A1.32,1.32,0,0,1,46.5,28h5.1a1.32,1.32,0,0,1,1.31,1.32Z"/><polygon class="cls-2" points="36 13.71 36.01 13.71 36.01 13.71 36 13.71"/><path class="cls-1" d="M30.25,28h-.11a1.32,1.32,0,0,0-1.32,1.31v9.78a1.32,1.32,0,0,0,1.32,1.31h.11a1.31,1.31,0,0,0,1.31-1.31V29.3A1.31,1.31,0,0,0,30.25,28Z"/><path class="cls-1" d="M51.6,28H46.5a1.32,1.32,0,0,0-1.32,1.32V39.1a1.33,1.33,0,0,0,1.32,1.32h5.1a1.32,1.32,0,0,0,1.31-1.32V39a1.32,1.32,0,0,0-1.31-1.32H47.93V35.58H51.6a1.31,1.31,0,0,0,1.31-1.31h0v-.1a1.32,1.32,0,0,0-1.32-1.32H47.93V30.75H51.6a1.31,1.31,0,0,0,1.31-1.31v-.11A1.32,1.32,0,0,0,51.6,28Z"/><path class="cls-1" d="M26.44,37.64H22.77V29.3A1.33,1.33,0,0,0,21.45,28h-.11A1.32,1.32,0,0,0,20,29.3v9.77a1.32,1.32,0,0,0,1.32,1.32h5.1a1.32,1.32,0,0,0,1.32-1.32V39A1.33,1.33,0,0,0,26.44,37.64Z"/><path class="cls-1" d="M42.18,28h-.11a1.32,1.32,0,0,0-1.32,1.31V35L36,28.65A1.31,1.31,0,0,0,34.85,28h-.11a1.32,1.32,0,0,0-1.32,1.31v9.78a1.32,1.32,0,0,0,1.32,1.31h.11a1.31,1.31,0,0,0,1.31-1.31V33.23L41,39.78l.1.14a1.06,1.06,0,0,0,.51.37,1.24,1.24,0,0,0,.5.1h.11a1.31,1.31,0,0,0,.61-.15.87.87,0,0,0,.32-.24h0a1.34,1.34,0,0,0,.38-.92V29.3A1.32,1.32,0,0,0,42.18,28Z"/></g></g></g></svg>