<svg id="icon-age" xmlns="http://www.w3.org/2000/svg" width="34.982" height="34.982" viewBox="0 0 34.982 34.982">
  <path id="Path_12245" data-name="Path 12245" d="M215.7,273.763a3.322,3.322,0,1,0,3.322,3.322A3.326,3.326,0,0,0,215.7,273.763Z" transform="translate(-197.87 -255.058)" fill="#fff"/>
  <path id="Path_12246" data-name="Path 12246" d="M231.763,185.288a2.144,2.144,0,1,0-2.144-2.144A2.146,2.146,0,0,0,231.763,185.288Z" transform="translate(-213.931 -168.633)" fill="#fff"/>
  <path id="Path_12247" data-name="Path 12247" d="M29.859,5.123A17.491,17.491,0,0,0,5.123,29.859,17.491,17.491,0,0,0,29.859,5.123ZM10.8,26.373a1.025,1.025,0,1,1-2.05,0V12.367H6.559a1.025,1.025,0,0,1,0-2.05H9.772A1.025,1.025,0,0,1,10.8,11.342ZM17.832,27.4a5.369,5.369,0,0,1-2.917-9.878,4.194,4.194,0,1,1,5.834,0A5.369,5.369,0,0,1,17.832,27.4ZM30.2,17.8H28.524v1.741a1.025,1.025,0,1,1-2.05,0V17.8H24.733a1.025,1.025,0,1,1,0-2.05h1.741V14.075a1.025,1.025,0,1,1,2.05,0V15.75H30.2a1.025,1.025,0,0,1,0,2.05Z" transform="translate(0)" fill="#fff"/>
</svg>
