<svg xmlns="http://www.w3.org/2000/svg" viewBox="0 0 72 72"><defs><style>.cls-1{fill:#5500f5;}.cls-2{fill:#fff;}</style></defs><g id="Layer_2" data-name="Layer 2"><g id="Layer_1-2" data-name="Layer 1"><g id="Group_23367" data-name="Group 23367"><path id="Path_23889" data-name="Path 23889" class="cls-1" d="M72,36A36,36,0,1,1,36,0h0A36,36,0,0,1,72,36"/><path id="Path_23892" data-name="Path 23892" class="cls-2" d="M52.28,46.93V17.86A5.87,5.87,0,0,0,46.41,12H25.59a5.87,5.87,0,0,0-5.87,5.87h0V46.93ZM36,15.64a1.78,1.78,0,1,1-1.24.52A1.76,1.76,0,0,1,36,15.64"/><path id="Path_23893" data-name="Path 23893" class="cls-2" d="M19.72,50.45v3.69A5.87,5.87,0,0,0,25.59,60H46.41a5.87,5.87,0,0,0,5.87-5.88h0V50.45ZM36,56.75a1.78,1.78,0,1,1,1.24-.52,1.76,1.76,0,0,1-1.24.52"/></g></g></g></svg>