<svg xmlns="http://www.w3.org/2000/svg" width="20.177" height="20.177" viewBox="0 0 20.177 20.177">
  <path id="Path_352" data-name="Path 352" d="M26.088,16A10.088,10.088,0,1,0,36.177,26.088,10.087,10.087,0,0,0,26.088,16Zm3.254,6.834a1.3,1.3,0,1,1-1.3,1.3A1.3,1.3,0,0,1,29.343,22.834Zm-6.509,0a1.3,1.3,0,1,1-1.3,1.3A1.3,1.3,0,0,1,22.834,22.834Zm7.924,6.924a6.077,6.077,0,0,1-9.34,0,.651.651,0,0,1,1-.834,4.78,4.78,0,0,0,7.338,0,.651.651,0,0,1,1,.834Z" transform="translate(-16 -16)" fill="#fff"/>
</svg>
